<svg width="59" height="60" viewBox="0 0 59 60" fill="none" xmlns="http://www.w3.org/2000/svg">
<g clip-path="url(#clip0_1_39)">
<path d="M25.2705 24.2815L22.8765 16.0932C21.1737 16.7914 19.5841 17.7715 18.1846 19.0038L17.5218 18.7741C13.2631 17.298 8.58843 19.6289 7.08034 23.98L13.3904 26.1671C12.9605 27.4074 12.6835 28.6628 12.5473 29.9124L20.9827 30.0228L25.2705 24.2815Z" fill="#093134" stroke="#093134" stroke-width="2.36547"/>
<path d="M34.522 25.7602L41.4721 20.8068C40.7696 19.9416 39.9793 19.1439 39.1028 18.4348L40.3242 14.9107C41.3296 12.01 39.8432 8.86072 37.0041 7.87669C34.1649 6.89266 31.0484 8.44659 30.0431 11.3473L28.8217 14.8714C27.6942 14.886 26.5795 15.0235 25.4923 15.2684L27.8863 23.4602L34.522 25.7602Z" fill="#093134" stroke="#093134" stroke-width="2.36547"/>
<path d="M12.4752 32.6869C12.5676 34.312 12.8946 35.8996 13.4347 37.4014C10.4355 40.0951 9.70965 44.6594 11.9036 48.1479L17.9896 44.1403C19.1898 45.201 20.5622 46.0924 22.0839 46.7682L24.8982 38.65L20.9065 32.7964L12.4752 32.6869Z" fill="#093134" stroke="#093134" stroke-width="2.36547"/>
<path d="M45.5636 28.4932L44.9008 28.2635C44.5641 26.4295 43.9218 24.6757 43.0164 23.0735L36.0688 28.0238L35.8838 35.1873L42.5783 40.3207C43.2446 39.255 43.8039 38.0974 44.2337 36.8572L50.5438 39.0442C52.0519 34.6931 49.8223 29.9693 45.5636 28.4932Z" fill="#093134" stroke="#093134" stroke-width="2.36547"/>
<path d="M34.2273 37.4132L27.4695 39.5409L24.6563 47.6597C26.2696 48.0704 27.8994 48.2195 29.4984 48.1291L31.799 55.0434C35.6813 53.6609 37.9357 49.6265 37.2467 45.6544C38.6002 44.809 39.8397 43.7643 40.918 42.5451L34.2273 37.4132Z" fill="#093134" stroke="#093134" stroke-width="2.36547"/>
<path d="M33.3353 28.2903L27.253 26.1822L23.3233 31.4442L26.9781 36.8036L33.1657 34.8555L33.3353 28.2903Z" fill="#093134" stroke="#093134" stroke-width="2.36547"/>
</g>
<defs>
<clipPath id="clip0_1_39">
<rect width="46" height="47" fill="white" transform="translate(15.3917) rotate(19.1161)"/>
</clipPath>
</defs>
</svg>
